<?xml version="1.0" standalone="no"?>
<!DOCTYPE svg PUBLIC "-//W3C//DTD SVG 20010904//EN"
 "http://www.w3.org/TR/2001/REC-SVG-20010904/DTD/svg10.dtd">
<svg version="1.0" xmlns="http://www.w3.org/2000/svg"
 width="9750.000000pt" height="6500.000000pt" viewBox="0 0 9750.000000 6500.000000"
 preserveAspectRatio="xMidYMid meet">

<g transform="translate(0.000000,6500.000000) scale(0.100000,-0.100000)"
fill="#000000" stroke="none">
<path d="M48686 63454 c-441 -68 -812 -380 -950 -799 -65 -199 -59 119 -67
-3510 -4 -1809 -10 -3315 -13 -3345 -4 -30 -13 -147 -22 -260 -66 -896 -246
-1709 -519 -2335 -118 -272 -239 -496 -400 -740 -349 -528 -815 -970 -1395
-1322 -204 -124 -533 -294 -544 -282 -2 2 -31 68 -65 147 -456 1058 -1102
2064 -2012 3132 -1790 2104 -3499 3699 -5114 4777 -1473 982 -2803 1513 -4160
1660 -206 22 -893 25 -1085 5 -682 -73 -1233 -227 -1806 -506 -621 -303 -1129
-676 -1669 -1227 -1361 -1388 -2391 -3536 -3154 -6577 -212 -844 -306 -1316
-385 -1942 -87 -683 -120 -1259 -120 -2060 0 -690 19 -1119 80 -1810 361
-4128 1947 -9162 4510 -14310 2779 -5584 6258 -10412 8821 -12241 813 -580
1518 -867 2198 -895 424 -18 857 89 1204 298 199 119 430 320 578 503 344 425
572 1018 672 1750 65 469 78 851 56 1595 -19 608 -16 1699 4 2110 94 1846 329
3228 775 4545 183 542 350 943 616 1480 236 476 384 738 853 1510 365 599 511
855 662 1160 198 398 325 727 414 1075 274 1062 130 2159 -454 3460 -26 58
-112 238 -190 400 -308 633 -468 1097 -590 1713 -98 495 -139 970 -139 1612 1
550 22 938 100 1830 93 1066 118 1387 146 1865 21 343 17 1426 -5 1720 -21
274 -50 560 -77 750 -10 74 -16 138 -12 142 4 3 68 33 142 66 1214 537 2183
1285 2897 2237 107 143 259 366 333 488 30 49 57 90 61 92 3 3 46 -57 94 -133
741 -1172 1797 -2057 3195 -2680 125 -56 155 -73 153 -88 -1 -11 -13 -111 -27
-224 -68 -551 -81 -794 -81 -1550 1 -808 14 -1038 135 -2415 83 -949 104
-1253 121 -1775 35 -1119 -96 -2055 -408 -2914 -90 -249 -161 -414 -328 -756
-283 -582 -439 -973 -565 -1417 -276 -969 -273 -1823 7 -2688 94 -291 196
-533 359 -855 157 -311 259 -487 776 -1340 470 -775 734 -1274 998 -1885 607
-1407 966 -3055 1085 -4980 44 -714 56 -1570 34 -2359 -22 -797 -16 -1201 27
-1601 133 -1263 617 -2124 1415 -2519 624 -309 1362 -297 2154 36 1110 466
2427 1604 3919 3388 2015 2409 4162 5791 5961 9389 1992 3985 3426 7974 4129
11481 531 2650 650 5019 355 7050 -73 503 -167 962 -340 1655 -658 2634 -1529
4626 -2626 6003 -204 256 -353 423 -593 663 -522 523 -988 864 -1585 1159
-569 281 -1086 432 -1740 510 -227 27 -741 38 -986 21 -614 -43 -1162 -157
-1804 -375 -2064 -700 -4318 -2380 -6726 -5011 -492 -538 -1016 -1145 -1331
-1540 -628 -790 -1148 -1623 -1521 -2435 -51 -113 -109 -242 -127 -287 -19
-47 -40 -83 -47 -83 -17 0 -280 136 -418 215 -977 564 -1617 1322 -2013 2387
-214 573 -360 1300 -417 2073 -8 116 -18 230 -21 255 -3 25 -9 1528 -13 3340
l-7 3295 -21 90 c-55 235 -152 420 -306 582 -266 280 -662 416 -1041 357z
m-15381 -5263 c767 -102 1561 -410 2480 -960 1429 -856 3054 -2302 4724 -4206
863 -985 1283 -1557 1702 -2320 99 -182 265 -519 271 -551 3 -17 -17 -23 -230
-66 -673 -134 -1530 -267 -2732 -423 -1959 -254 -2630 -359 -3535 -550 -2560
-541 -4296 -1456 -5565 -2935 -200 -233 -274 -351 -334 -531 -150 -446 -29
-931 310 -1248 196 -183 426 -287 711 -322 228 -27 507 36 717 164 132 80 221
161 366 334 381 452 826 826 1380 1157 173 104 596 317 805 406 687 291 1484
521 2465 710 146 28 284 55 308 59 23 5 42 7 42 5 0 -3 -22 -58 -50 -123 -254
-609 -443 -1290 -565 -2034 -89 -547 -136 -990 -210 -2007 -98 -1355 -167
-1866 -331 -2471 -372 -1374 -1234 -2408 -2765 -3319 -123 -73 -253 -151 -289
-174 -87 -55 -267 -234 -323 -323 -248 -389 -272 -825 -67 -1221 63 -123 126
-206 232 -308 120 -115 239 -192 398 -254 307 -122 664 -103 964 50 149 76
554 323 821 501 495 330 893 644 1302 1028 l173 161 41 -82 c129 -256 364
-655 741 -1253 453 -719 625 -1023 767 -1349 303 -697 262 -1257 -140 -1896
-97 -156 -163 -295 -193 -413 -105 -406 2 -826 286 -1124 186 -194 399 -309
663 -359 132 -24 365 -15 498 19 211 56 393 160 548 316 130 130 258 325 430
656 570 1096 646 2213 231 3391 -193 546 -458 1061 -957 1855 -109 173 -266
424 -350 559 -518 832 -748 1357 -830 1890 -9 58 -19 195 -22 305 l-5 200 52
163 c149 474 259 968 340 1532 62 436 104 865 165 1710 77 1064 129 1539 221
2030 40 213 125 564 184 759 161 531 409 1049 718 1501 159 232 385 518 416
525 12 2 161 23 331 45 856 114 1769 265 2327 385 89 19 163 34 164 32 3 -3
13 -86 19 -172 4 -44 8 -96 10 -115 26 -236 26 -1225 0 -1580 -2 -30 -6 -104
-10 -165 -4 -60 -8 -126 -10 -145 -2 -19 -6 -80 -10 -135 -8 -121 -39 -497
-99 -1185 -84 -955 -105 -1320 -113 -1925 -13 -1037 71 -1846 281 -2690 164
-659 362 -1188 716 -1915 92 -190 194 -406 225 -480 321 -761 372 -1259 185
-1820 -109 -329 -272 -637 -747 -1415 -748 -1226 -1090 -1880 -1443 -2765
-851 -2131 -1245 -4717 -1178 -7735 28 -1261 15 -1595 -73 -1955 -39 -157 -56
-200 -79 -200 -54 0 -320 129 -505 245 -1823 1143 -4589 4700 -7012 9015
-2078 3699 -3733 7622 -4693 11120 -923 3364 -1203 6287 -824 8620 134 831
514 2265 859 3250 709 2021 1572 3366 2590 4036 448 295 892 455 1394 503 151
15 542 5 716 -18z m31990 -1 c1045 -156 1942 -852 2726 -2115 561 -905 1069
-2146 1493 -3650 138 -490 312 -1192 390 -1570 438 -2143 285 -4806 -454
-7922 -874 -3682 -2590 -7937 -4833 -11982 -1461 -2637 -3040 -4993 -4563
-6811 -417 -498 -695 -802 -1144 -1251 -444 -444 -637 -619 -985 -891 -372
-291 -789 -539 -963 -574 -28 -6 -31 -3 -50 47 -51 140 -102 432 -121 701 -14
186 -14 650 0 1013 22 600 12 1764 -21 2390 -29 543 -99 1362 -145 1680 -2 17
-13 102 -25 190 -207 1566 -601 3025 -1163 4300 -328 745 -598 1243 -1310
2412 -294 483 -387 645 -506 884 -110 219 -162 346 -216 524 -156 517 -96
1030 207 1740 33 77 131 286 218 465 272 559 399 864 548 1320 403 1233 531
2480 427 4180 -22 346 -103 1341 -150 1835 -9 96 -44 571 -50 680 -4 61 -8
130 -10 155 -26 294 -26 1384 -1 1590 2 14 7 68 10 120 7 88 15 162 20 167 1
1 76 -14 166 -33 619 -130 1433 -265 2290 -379 190 -25 354 -48 365 -50 36 -8
288 -332 458 -587 405 -610 674 -1280 836 -2078 106 -518 161 -1001 241 -2095
69 -952 107 -1339 176 -1810 76 -521 184 -1006 315 -1425 73 -235 72 -224 65
-435 -8 -275 -45 -486 -133 -759 -148 -462 -344 -832 -929 -1761 -581 -924
-799 -1323 -1012 -1857 -551 -1378 -449 -2640 317 -3918 116 -194 180 -278
286 -379 181 -171 397 -275 644 -311 128 -19 344 -8 464 23 202 53 371 147
522 290 249 234 375 525 375 865 0 152 -18 266 -61 388 -40 113 -61 155 -172
339 -161 266 -257 495 -308 735 -20 90 -23 135 -23 310 0 185 3 217 27 333 75
351 233 707 559 1256 89 149 170 279 485 781 299 478 454 740 603 1023 l72
137 111 -107 c567 -543 1241 -1041 2012 -1488 238 -138 336 -178 519 -210 166
-29 375 -15 536 36 95 30 262 112 339 166 248 175 424 446 485 745 75 369 -41
775 -300 1047 -105 111 -175 163 -375 279 -1556 904 -2439 1911 -2839 3239
-182 601 -271 1186 -355 2338 -69 954 -86 1150 -131 1560 -114 1042 -316 1904
-626 2665 -44 107 -82 202 -84 211 -7 19 -43 25 446 -72 1795 -355 3001 -857
3940 -1639 170 -142 448 -422 611 -615 148 -175 238 -257 367 -334 213 -127
488 -189 715 -162 437 53 779 290 963 666 211 433 150 909 -165 1300 -212 263
-531 597 -801 841 -963 867 -2160 1493 -3711 1939 -1105 318 -2125 504 -4394
800 -1088 142 -1495 199 -2040 286 -495 79 -1212 212 -1229 229 -12 12 226
489 362 726 314 549 701 1092 1177 1654 2108 2490 4120 4239 5860 5095 728
358 1361 548 2000 599 132 10 514 -4 650 -24z"/>
<path d="M81580 15140 c-34 -12 -297 -48 -860 -120 -462 -58 -822 -90 -1395
-125 -473 -29 -465 -28 -496 -63 -53 -59 -59 -105 -59 -441 0 -307 12 -937 30
-1581 5 -190 15 -667 21 -1060 13 -757 11 -807 -31 -845 -36 -32 -67 -11 -235
160 -222 226 -413 363 -654 470 -354 157 -748 226 -1216 212 -591 -18 -1065
-132 -1530 -370 -274 -140 -519 -321 -756 -557 -602 -600 -963 -1371 -1078
-2300 -143 -1158 77 -2241 618 -3049 561 -836 1342 -1326 2316 -1455 564 -74
1072 -35 1540 119 397 130 726 328 1037 623 95 90 145 132 158 132 4 0 19 -22
34 -49 26 -48 27 -57 41 -348 11 -206 20 -308 30 -330 29 -66 131 -113 285
-132 170 -22 1826 -6 2117 19 128 11 180 29 201 70 14 28 13 45 -23 365 -76
671 -120 1477 -145 2695 -13 604 -13 2778 0 3445 19 1001 58 2090 100 2825 28
477 109 1409 130 1506 26 116 -75 220 -180 184z m-3875 -5745 c264 -55 476
-169 678 -364 145 -140 251 -283 332 -446 78 -157 109 -252 137 -410 17 -104
20 -147 15 -320 -7 -283 -42 -428 -157 -660 -193 -388 -542 -686 -913 -780
-285 -72 -621 -54 -870 48 -296 120 -551 372 -713 702 -66 136 -102 243 -131
398 -25 134 -25 503 1 642 63 343 213 635 445 865 187 186 427 302 703 339
106 14 377 6 473 -14z"/>
<path d="M46835 15084 c-467 -34 -699 -69 -1040 -156 -823 -209 -1539 -622
-2170 -1253 -920 -918 -1470 -2050 -1639 -3374 -53 -414 -67 -1038 -32 -1451
118 -1408 593 -2520 1484 -3474 651 -697 1444 -1167 2368 -1402 425 -108 826
-159 1329 -171 1207 -27 2258 287 3100 927 167 126 275 220 439 380 333 325
506 558 506 681 0 16 -18 65 -40 110 -147 292 -1014 1601 -1184 1786 -50 55
-111 92 -151 93 -25 0 -147 -91 -339 -255 -324 -275 -566 -439 -861 -581 -393
-189 -807 -284 -1240 -284 -829 0 -1474 345 -1934 1034 -303 454 -456 945
-492 1582 -34 607 78 1198 316 1669 299 589 758 1007 1307 1190 239 79 431
112 708 122 620 20 1180 -155 1737 -543 127 -89 304 -232 488 -393 210 -186
298 -251 338 -251 85 1 170 78 304 276 222 328 729 1215 914 1599 130 270 142
331 89 444 -42 89 -104 163 -281 336 -266 260 -497 441 -796 624 -666 407
-1447 644 -2378 721 -130 11 -755 21 -850 14z"/>
<path d="M17281 14839 c-422 -11 -798 -36 -916 -59 -62 -13 -121 -46 -149 -83
-20 -27 -21 -43 -24 -285 -5 -381 18 -1298 63 -2537 81 -2196 81 -2796 0
-5005 -52 -1425 -68 -2056 -63 -2442 3 -289 4 -291 84 -332 37 -20 62 -21 409
-28 204 -4 622 -15 930 -25 464 -15 786 -18 1885 -16 1651 3 1900 12 2368 79
1132 162 2084 641 2766 1393 800 882 1276 1860 1460 3002 86 529 101 1139 41
1659 -72 621 -249 1231 -534 1841 -275 587 -595 1047 -1012 1454 -401 391
-839 672 -1379 884 -620 244 -1410 409 -2195 460 -646 42 -2811 66 -3734 40z
m3380 -2369 c595 -47 1090 -235 1514 -575 50 -40 147 -131 217 -201 470 -475
719 -1001 815 -1714 26 -193 26 -770 0 -980 -80 -645 -261 -1124 -591 -1568
-102 -137 -351 -386 -486 -486 -373 -277 -788 -435 -1305 -496 -243 -29 -779
-21 -1063 15 -328 43 -520 131 -550 252 -6 21 -13 328 -16 683 -3 355 -10 959
-16 1343 -8 499 -8 899 0 1410 6 391 13 1007 16 1367 4 545 8 662 20 697 61
171 423 257 1100 262 115 0 271 -4 345 -9z"/>
<path d="M51951 14838 c-50 -14 -77 -35 -96 -75 -21 -44 -18 -102 19 -381 62
-469 101 -949 147 -1812 17 -311 23 -3521 9 -4880 -20 -2053 -25 -3421 -10
-3465 42 -130 135 -166 510 -197 216 -18 1462 -17 1695 0 187 14 380 37 436
52 51 14 99 49 123 90 20 33 21 49 19 230 -2 107 -10 312 -18 455 -8 143 -20
568 -26 945 -13 838 -6 4255 10 4765 44 1435 86 2414 147 3450 13 237 28 502
31 590 l6 160 -26 31 c-14 17 -43 36 -65 42 -50 15 -2858 16 -2911 0z"/>
<path d="M38816 11810 c-953 -74 -1720 -413 -2365 -1044 -461 -452 -775 -942
-974 -1522 -259 -754 -294 -1668 -96 -2484 212 -872 753 -1666 1499 -2200 554
-396 1197 -617 1950 -670 390 -27 745 2 1270 105 436 86 708 164 905 259 139
67 214 127 251 201 26 54 27 60 20 161 -26 402 -210 1354 -341 1764 -45 141
-108 275 -139 295 -21 14 -29 12 -117 -26 -478 -208 -742 -285 -1019 -296
-512 -21 -957 139 -1272 459 -227 230 -349 519 -380 901 -31 393 55 764 242
1042 254 376 648 580 1160 602 258 10 465 -24 985 -164 365 -98 346 -98 402
-4 51 86 120 304 307 971 219 783 255 936 237 993 -24 72 -118 140 -350 257
-415 207 -843 329 -1352 385 -169 19 -663 28 -823 15z"/>
<path d="M30460 11739 c-1194 -87 -2097 -556 -2749 -1429 -230 -308 -418 -675
-547 -1068 -233 -710 -284 -1632 -133 -2383 171 -852 614 -1579 1294 -2123
562 -450 1201 -703 1997 -793 215 -24 770 -24 988 0 806 89 1445 338 1998 780
232 185 517 486 688 727 534 753 767 1714 683 2810 -73 948 -419 1745 -1034
2379 -611 629 -1368 983 -2325 1086 -174 19 -682 27 -860 14z m540 -2369 c398
-49 722 -278 954 -673 210 -357 276 -800 186 -1235 -72 -344 -270 -676 -525
-879 -222 -176 -441 -257 -730 -269 -489 -22 -884 191 -1169 629 -191 293
-280 669 -248 1050 30 361 147 653 368 918 294 354 704 515 1164 459z"/>
<path d="M59300 11739 c-1194 -87 -2097 -556 -2749 -1429 -230 -308 -418 -675
-547 -1068 -233 -710 -284 -1632 -133 -2383 171 -852 614 -1579 1294 -2123
562 -450 1201 -703 1997 -793 215 -24 770 -24 988 0 806 89 1445 338 1998 780
232 185 517 486 688 727 534 753 767 1714 683 2810 -73 948 -419 1745 -1034
2379 -611 629 -1368 983 -2325 1086 -174 19 -682 27 -860 14z m540 -2369 c398
-49 722 -278 954 -673 210 -357 276 -800 186 -1235 -72 -344 -270 -676 -525
-879 -222 -176 -441 -257 -730 -269 -489 -22 -884 191 -1169 629 -191 293
-280 669 -248 1050 30 361 147 653 368 918 294 354 704 515 1164 459z"/>
<path d="M64949 11365 c-104 -33 -175 -132 -229 -317 -128 -444 -217 -1078
-262 -1868 -17 -295 -17 -1576 0 -1905 46 -890 119 -1425 246 -1808 289 -862
897 -1334 1876 -1453 103 -13 218 -18 400 -18 223 0 271 2 385 23 458 81 834
238 1425 592 337 203 525 324 584 380 l46 42 24 -54 c32 -71 50 -178 81 -494
27 -275 39 -326 87 -380 53 -61 127 -75 503 -96 263 -15 1258 -15 1500 0 487
30 624 67 685 186 23 45 25 63 29 190 4 165 -12 827 -39 1650 -50 1513 -49
1823 15 3260 41 933 48 1127 49 1530 1 449 3 439 -89 485 -45 22 -65 25 -245
31 -107 4 -663 10 -1235 14 -1088 7 -1125 6 -1206 -35 -26 -14 -42 -32 -55
-62 -17 -41 -18 -135 -26 -2003 -4 -1078 -12 -2021 -17 -2095 -11 -154 -29
-217 -93 -325 -53 -88 -196 -237 -313 -325 -251 -188 -478 -285 -695 -297
-297 -16 -573 69 -744 228 -277 259 -342 539 -377 1619 -13 398 -7 1361 10
1615 31 462 69 838 122 1200 39 267 40 338 8 395 -40 72 -75 83 -274 91 -93 4
-611 9 -1150 13 -842 5 -986 3 -1026 -9z"/>
</g>
</svg>
